<?xml version="1.0" encoding="utf-8"?>
<!-- Generator: Adobe Illustrator 25.4.1, SVG Export Plug-In . SVG Version: 6.00 Build 0)  -->
<svg version="1.1" id="Layer_1" xmlns="http://www.w3.org/2000/svg" xmlns:xlink="http://www.w3.org/1999/xlink" x="0px" y="0px"
	 viewBox="0 0 209.3 65.5" style="enable-background:new 0 0 209.3 65.5;" xml:space="preserve">
<style type="text/css">
	.st0{fill:#FFFFFF;}
</style>
<path class="st0" d="M68.1,46.4c0.8,3.4,3,5.3,6.2,5.3h0.9v9.4c-1,0.1-2,0.2-3,0.2c-6.3,0-11.2-3.1-13.4-8.8
	c-1.2-3.7-1.8-7.5-1.6-11.3V4.5h10.4v36.9C67.6,43.1,67.7,44.8,68.1,46.4 M24.5,28.6c6.4,0,11.1,4.8,11.1,11.6S31,51.9,24.5,51.9
	s-11.1-4.8-11.1-11.7S18,28.6,24.5,28.6 M50.4,61.3c0.8,0,1.6-0.1,2.4-0.2v-9.4c-0.3,0-0.6,0-0.9,0c-2.9,0-5.1-1.9-5.9-5.3
	c-0.3-1.6-0.5-3.3-0.5-5V19.6h-9.7v4.2c-3.1-3.2-7.5-4.9-11.9-4.8C12.1,19,3,28.1,3,40.2c0,12.5,8.6,21.2,20.8,21.2
	c7.1,0,11.9-2.7,14.7-6.5C40.7,58.7,43.7,61.3,50.4,61.3 M117,46.4c-0.3-1.6-0.5-3.3-0.5-5V19.6H106v21.6c-0.1,3.8,0.4,7.7,1.6,11.3
	c2.2,5.7,7.1,8.8,13.4,8.8c1,0,2-0.1,3-0.2v-9.4c-0.3,0-0.6,0-1,0C119.9,51.7,117.8,49.8,117,46.4 M91.3,45.8
	c-0.4-2.1-0.5-4.2-0.4-6.4V28.9h8.6v-9.3h-8.6v-10H80.4v10h-4.8v9.3h4.8V41c0,2.5,0.2,5.1,0.6,7.6c1.8,8.4,7.3,12.8,15.7,12.8
	c1.1,0,2.3-0.1,3.4-0.2v-9.5c-0.5,0-1,0.1-1.5,0.1C94.6,51.8,92.2,49.9,91.3,45.8 M111.3,15.4c3.3,0,6-2.7,6-6s-2.7-6-6-6
	s-6,2.7-6,6S108,15.4,111.3,15.4 M197.9,49.4c-2.9,2.3-6.6,3.5-10.3,3.3c-6.8,0-11.8-3.4-12.5-8.7h31c0.2-1.7,0.3-3.5,0.2-5.2
	c-0.4-11.9-8.2-20.1-20.7-20.1c-12.2,0-21.1,9.2-21.1,21.6c0,13.7,9.6,21.7,23,21.7c6.3,0,12.2-1.6,16.5-5.6L197.9,49.4z
	 M175.1,35.7c0.9-4.9,5.4-8.4,10.4-8.2c5.6,0,9.5,3.2,10.3,8.2H175.1z M157.7,49.5c-2.5,2-5.6,3-8.8,3c-7.4,0-12.2-4.9-12.2-12.2
	c0-7,4.9-12.1,11.6-12.1c3.1-0.1,6.1,1,8.4,3l7.3-6.8c-4.5-4.1-9.6-5.7-15.8-5.7c-12.6,0-22,9.1-22,21.6c0,13,8.7,21.7,22.6,21.7
	c5.5,0,11.3-1.5,15.4-5.4L157.7,49.5z"/>
</svg>
